<svg xmlns="http://www.w3.org/2000/svg" width="33" height="33" viewBox="0 0 33 33" fill="none">
    <path
        d="M9.82106 23.5688C10.9775 22.7717 12.1279 22.1538 13.2725 21.7151C14.417 21.2764 15.6595 21.0571 17 21.0571C18.3405 21.0571 19.586 21.2764 20.7364 21.7151C21.8869 22.1538 23.0404 22.7717 24.1968 23.5688C25.0385 22.5935 25.6638 21.5637 26.0728 20.4794C26.4818 19.3951 26.6862 18.2353 26.6862 17C26.6862 14.2686 25.7547 11.9713 23.8917 10.1083C22.0287 8.24526 19.7314 7.31375 17 7.31375C14.2686 7.31375 11.9713 8.24526 10.1083 10.1083C8.24526 11.9713 7.31375 14.2686 7.31375 17C7.31375 18.2353 7.52121 19.3951 7.93612 20.4794C8.35103 21.5637 8.97935 22.5935 9.82106 23.5688ZM16.9937 17.6569C15.9528 17.6569 15.0772 17.2996 14.3669 16.5851C13.6566 15.8706 13.3014 14.9929 13.3014 13.952C13.3014 12.9111 13.6587 12.0355 14.3732 11.3252C15.0877 10.6149 15.9654 10.2597 17.0063 10.2597C18.0472 10.2597 18.9228 10.617 19.6331 11.3315C20.3434 12.046 20.6986 12.9237 20.6986 13.9646C20.6986 15.0055 20.3413 15.8811 19.6268 16.5914C18.9123 17.3017 18.0346 17.6569 16.9937 17.6569ZM17.0135 28C15.4889 28 14.0585 27.7127 12.7223 27.1382C11.3862 26.5637 10.219 25.7766 9.22081 24.7768C8.2226 23.777 7.43626 22.6121 6.86177 21.2821C6.28726 19.952 6 18.524 6 16.9979C6 15.4717 6.28726 14.0444 6.86177 12.7158C7.43626 11.3872 8.2234 10.223 9.22318 9.22318C10.223 8.2234 11.3879 7.43626 12.7179 6.86177C14.048 6.28726 15.476 6 17.0021 6C18.5283 6 19.9556 6.28726 21.2842 6.86177C22.6128 7.43626 23.777 8.2234 24.7768 9.22318C25.7766 10.223 26.5637 11.3875 27.1382 12.7167C27.7127 14.046 28 15.4692 28 16.9865C28 18.5111 27.7127 19.9415 27.1382 21.2777C26.5637 22.6138 25.7766 23.781 24.7768 24.7792C23.777 25.7774 22.6125 26.5637 21.2833 27.1382C19.954 27.7127 18.5308 28 17.0135 28ZM17 26.6862C18.0762 26.6862 19.1377 26.5152 20.1842 26.173C21.2308 25.8308 22.2165 25.2775 23.1413 24.513C22.2165 23.8331 21.2371 23.3061 20.2031 22.932C19.1692 22.5579 18.1015 22.3708 17 22.3708C15.8985 22.3708 14.8289 22.556 13.7913 22.9264C12.7536 23.2968 11.7798 23.8256 10.8698 24.513C11.7872 25.2775 12.7692 25.8308 13.8158 26.173C14.8623 26.5152 15.9238 26.6862 17 26.6862ZM17.0016 16.3431C17.6938 16.3431 18.264 16.1185 18.7124 15.6691C19.1607 15.2198 19.3848 14.649 19.3848 13.9568C19.3848 13.2645 19.1602 12.6943 18.7108 12.2459C18.2615 11.7976 17.6907 11.5735 16.9984 11.5735C16.3062 11.5735 15.736 11.7981 15.2876 12.2475C14.8393 12.6968 14.6152 13.2676 14.6152 13.9599C14.6152 14.6521 14.8398 15.2223 15.2892 15.6706C15.7385 16.119 16.3093 16.3431 17.0016 16.3431Z"
        fill="black" />
</svg>