<svg xmlns="http://www.w3.org/2000/svg" width="28" height="28" viewBox="0 0 28 28" fill="none">
    <path
        d="M2.42285 14.1484C2.42285 9.90579 2.42285 7.78448 3.74087 6.46645C5.0589 5.14844 7.18021 5.14844 11.4229 5.14844H15.9229C20.1655 5.14844 22.2869 5.14844 23.6048 6.46645C24.9229 7.78448 24.9229 9.90579 24.9229 14.1484V16.3984C24.9229 20.641 24.9229 22.7624 23.6048 24.0804C22.2869 25.3984 20.1655 25.3984 15.9229 25.3984H11.4229C7.18021 25.3984 5.0589 25.3984 3.74087 24.0804C2.42285 22.7624 2.42285 20.641 2.42285 16.3984V14.1484Z"
        stroke="black" stroke-width="1.5" />
    <path d="M8.04785 5.14844V3.46094" stroke="black" stroke-width="1.5" stroke-linecap="round" />
    <path d="M19.2979 5.14844V3.46094" stroke="black" stroke-width="1.5" stroke-linecap="round" />
    <path d="M2.98535 10.7734H24.3604" stroke="black" stroke-width="1.5" stroke-linecap="round" />
    <path
        d="M20.4229 19.7734C20.4229 20.3948 19.9192 20.8984 19.2979 20.8984C18.6765 20.8984 18.1729 20.3948 18.1729 19.7734C18.1729 19.1521 18.6765 18.6484 19.2979 18.6484C19.9192 18.6484 20.4229 19.1521 20.4229 19.7734Z"
        fill="black" />
    <path
        d="M20.4229 15.2734C20.4229 15.8948 19.9192 16.3984 19.2979 16.3984C18.6765 16.3984 18.1729 15.8948 18.1729 15.2734C18.1729 14.6521 18.6765 14.1484 19.2979 14.1484C19.9192 14.1484 20.4229 14.6521 20.4229 15.2734Z"
        fill="black" />
    <path
        d="M14.7979 19.7734C14.7979 20.3948 14.2942 20.8984 13.6729 20.8984C13.0515 20.8984 12.5479 20.3948 12.5479 19.7734C12.5479 19.1521 13.0515 18.6484 13.6729 18.6484C14.2942 18.6484 14.7979 19.1521 14.7979 19.7734Z"
        fill="black" />
    <path
        d="M14.7979 15.2734C14.7979 15.8948 14.2942 16.3984 13.6729 16.3984C13.0515 16.3984 12.5479 15.8948 12.5479 15.2734C12.5479 14.6521 13.0515 14.1484 13.6729 14.1484C14.2942 14.1484 14.7979 14.6521 14.7979 15.2734Z"
        fill="black" />
    <path
        d="M9.17285 19.7734C9.17285 20.3948 8.66917 20.8984 8.04785 20.8984C7.42654 20.8984 6.92285 20.3948 6.92285 19.7734C6.92285 19.1521 7.42654 18.6484 8.04785 18.6484C8.66917 18.6484 9.17285 19.1521 9.17285 19.7734Z"
        fill="black" />
    <path
        d="M9.17285 15.2734C9.17285 15.8948 8.66917 16.3984 8.04785 16.3984C7.42654 16.3984 6.92285 15.8948 6.92285 15.2734C6.92285 14.6521 7.42654 14.1484 8.04785 14.1484C8.66917 14.1484 9.17285 14.6521 9.17285 15.2734Z"
        fill="black" />
</svg>