<svg xmlns="http://www.w3.org/2000/svg" width="33" height="33" viewBox="0 0 33 33" fill="none">
    <path
        d="M25.4373 15.5354L25.4372 15.4454H25.3472H6.65073H6.56071L6.56073 15.5354L6.56183 22.3229C6.56183 23.1895 7.12767 23.9217 7.87702 24.0105L7.877 24.0107L7.88232 24.011L8.02306 24.0193L8.02305 24.0194H8.02836H23.9716C24.7424 24.0194 25.3573 23.3393 25.4307 22.4949L25.4308 22.4949L25.431 22.491L25.4381 22.3268L25.4382 22.3268V22.3229L25.4373 15.5354ZM23.9769 9.69533L23.9769 9.69517H23.9716H8.02836C7.25757 9.69517 6.64275 10.3753 6.56928 11.2197L6.56919 11.2197L6.56902 11.2236L6.56191 11.3878L6.56183 11.3878L6.56183 11.3917L6.56073 13.6075L6.56068 13.6975H6.65073H25.3472H25.4372L25.4373 13.6075L25.4382 11.3918V11.3917C25.4382 10.5251 24.8723 9.79291 24.123 9.70409L24.123 9.70393L24.1177 9.70362L23.9769 9.69533ZM23.9716 7.9473C25.5221 7.9473 26.8105 9.36377 26.9045 11.18C26.9046 11.1803 26.9046 11.1807 26.9046 11.1811L26.91 11.3917V11.3929V22.3229C26.91 24.1666 25.6792 25.6529 24.1514 25.761L23.9701 25.7673H8.02836C6.47788 25.7673 5.18949 24.3509 5.09547 22.5347L5.09 22.3217V11.3917C5.09 9.54804 6.32085 8.06174 7.84861 7.95364L8.02993 7.9473H23.9716ZM22.8859 20.1305C23.2798 20.1305 23.6218 20.5083 23.6218 21.0045C23.6218 21.4567 23.336 21.813 22.9872 21.8702L22.8823 21.8784H20.1328C19.7389 21.8784 19.3969 21.5007 19.3969 21.0045C19.3969 20.5523 19.6827 20.196 20.0314 20.1388L20.1363 20.1305H22.8859Z"
        fill="#212121" stroke="white" stroke-width="0.18" />
</svg>