<svg xmlns="http://www.w3.org/2000/svg" width="33" height="33" viewBox="0 0 33 33" fill="none">
    <path
        d="M16.6732 29.9817C24.037 29.9817 30.0065 24.0122 30.0065 16.6484C30.0065 9.2846 24.037 3.31506 16.6732 3.31506C9.30938 3.31506 3.33984 9.2846 3.33984 16.6484C3.33984 24.0122 9.30938 29.9817 16.6732 29.9817Z"
        stroke="black" stroke-width="1.5" stroke-linecap="round" />
    <path d="M16.6592 23.3151H16.6858" stroke="black" stroke-width="2.5" stroke-linecap="round" />
    <path
        d="M12.6729 13.9818C12.6729 13.1907 12.9074 12.4173 13.347 11.7595C13.7865 11.1017 14.4112 10.589 15.1421 10.2863C15.873 9.98354 16.6773 9.90433 17.4532 10.0587C18.2291 10.213 18.9419 10.594 19.5013 11.1534C20.0607 11.7128 20.4417 12.4255 20.596 13.2015C20.7503 13.9774 20.6711 14.7816 20.3684 15.5125C20.0656 16.2435 19.5529 16.8682 18.8951 17.3077C18.2373 17.7472 17.464 17.9818 16.6729 17.9818V19.3151"
        stroke="black" stroke-width="1.5" stroke-linecap="round" />
</svg>