<svg xmlns="http://www.w3.org/2000/svg" width="33" height="32" viewBox="0 0 33 32" fill="none">
  <path d="M22.3333 9.3335H11.6667C10.1939 9.3335 9 10.5274 9 12.0002V24.0002C9 25.4729 10.1939 26.6668 11.6667 26.6668H22.3333C23.8061 26.6668 25 25.4729 25 24.0002V12.0002C25 10.5274 23.8061 9.3335 22.3333 9.3335Z" stroke="black" stroke-width="1.5" stroke-linecap="round" stroke-linejoin="round"/>
  <path d="M14.334 14.6665V21.3332" stroke="black" stroke-width="1.5" stroke-linecap="round" stroke-linejoin="round"/>
  <path d="M19.666 14.6665V21.3332" stroke="black" stroke-width="1.5" stroke-linecap="round" stroke-linejoin="round"/>
  <path d="M22.332 26.6665V27.9998" stroke="black" stroke-width="1.5" stroke-linecap="round" stroke-linejoin="round"/>
  <path d="M11.666 26.6665V27.9998" stroke="black" stroke-width="1.5" stroke-linecap="round" stroke-linejoin="round"/>
  <path d="M14.334 5.33333C14.334 4.59696 14.9309 4 15.6673 4H18.334C19.0704 4 19.6673 4.59696 19.6673 5.33333V9.33333H14.334V5.33333Z" stroke="black" stroke-width="1.5" stroke-linecap="round" stroke-linejoin="round"/>
</svg>