<svg xmlns="http://www.w3.org/2000/svg" width="25" height="25" viewBox="0 0 25 25" fill="none">
    <path
        d="M3.39831 10.9423V11.0123H3.46831H10.1504H10.2204V10.9423V2.46831V2.39831H10.1504H3.46831H3.39831V2.46831V10.9423ZM15.7796 21.5317V21.6017H15.8496H22.5317H22.6017V21.5317V13.0577V12.9877H22.5317H15.8496H15.7796V13.0577V21.5317ZM15.7796 7.3586V7.4286H15.8496H22.5317H22.6017V7.3586V2.46831V2.39831H22.5317H15.8496H15.7796V2.46831V7.3586ZM3.39831 21.5317V21.6017H3.46831H10.1504H10.2204V21.5317V16.6414V16.5714H10.1504H3.46831H3.39831V16.6414V21.5317ZM14.4512 8.75688V1.07H23.93V8.75688H14.4512ZM2.07 12.3406V1.07H11.5488V12.3406H2.07ZM14.4512 22.93V11.6594H23.93V22.93H14.4512ZM2.07 22.93V15.2431H11.5488V22.93H2.07Z"
        fill="black" stroke="white" stroke-width="0.14" />
</svg>